<svg width="14" height="15" viewBox="0 0 14 15" fill="none" xmlns="http://www.w3.org/2000/svg">
<path fill-rule="evenodd" clip-rule="evenodd" d="M6.66656 1.33333C5.3779 1.33333 4.33323 2.378 4.33323 3.66667C4.33323 4.95533 5.3779 6 6.66656 6C7.95523 6 8.9999 4.95533 8.9999 3.66667C8.9999 2.378 7.95523 1.33333 6.66656 1.33333ZM2.9999 3.66667C2.9999 1.64162 4.64152 0 6.66656 0C8.69161 0 10.3332 1.64162 10.3332 3.66667C10.3332 5.69171 8.69161 7.33333 6.66656 7.33333C4.64152 7.33333 2.9999 5.69171 2.9999 3.66667Z" fill="white"/>
<path fill-rule="evenodd" clip-rule="evenodd" d="M2.73594 9.33333C2.27372 9.33333 1.91245 9.55839 1.7658 9.88175C1.56283 10.3293 1.37903 10.8621 1.33566 11.3674C1.31627 11.5934 1.41046 11.7598 1.54024 11.8405C2.22635 12.2667 3.81616 13 6.66656 13C9.51697 13 11.1068 12.2667 11.7929 11.8405C11.9227 11.7598 12.0169 11.5934 11.9975 11.3674C11.9541 10.8621 11.7703 10.3293 11.5673 9.88175C11.4207 9.5584 11.0594 9.33333 10.5972 9.33333H2.73594ZM0.551514 9.33103C0.956811 8.43738 1.86183 8 2.73594 8H10.5972C11.4713 8 12.3763 8.43738 12.7816 9.33104C13.0144 9.84432 13.2642 10.5343 13.3259 11.2534C13.3821 11.9082 13.11 12.5919 12.4965 12.973C11.5941 13.5336 9.75963 14.3333 6.66656 14.3333C3.5735 14.3333 1.73903 13.5336 0.836671 12.973C0.223164 12.5919 -0.0489963 11.9082 0.0072067 11.2534C0.0689252 10.5343 0.318724 9.84432 0.551514 9.33103Z" fill="white"/>
</svg>
